<?xml version="1.0" encoding="utf-8"?>
<!-- Generator: Adobe Illustrator 25.3.0, SVG Export Plug-In . SVG Version: 6.00 Build 0)  -->
<svg version="1.1" xmlns="http://www.w3.org/2000/svg" xmlns:xlink="http://www.w3.org/1999/xlink" x="0px" y="0px"
	 viewBox="0 0 1020 650" style="enable-background:new 0 0 1020 650;" xml:space="preserve">
<style type="text/css">
	
		.st0{fill:none;stroke:#000000;stroke-width:2;stroke-linecap:square;stroke-linejoin:round;stroke-miterlimit:10;stroke-dasharray:0,6;}
	.st1{fill:#175694;}
	.st2{fill:#82368C;}
	.st3{fill:none;stroke:#82368C;stroke-width:1.25;stroke-miterlimit:10;}
	.st4{fill:none;stroke:#175694;stroke-width:1.25;stroke-miterlimit:10;}
	.st5{stroke:#000000;stroke-width:1.25;stroke-miterlimit:10;}
</style>
<g id="Capa_2">
	<path d="M1021.64,255.59V650H679.66c25.19-4.25,48.77-13.22,69.8-25.97c57.68-34.96,96.18-98.32,96.18-170.78
		c0-72.44-38.51-135.81-96.18-170.77c-22.7-13.76-48.36-23.11-75.82-26.89H1021.64z"/>
	<path d="M1021.64,255.59V650H749.46v-25.97c57.68-34.96,96.18-98.32,96.18-170.78c0-72.44-38.51-135.81-96.18-170.77v-26.89
		H1021.64z"/>
</g>
<g id="Capa_3">
	<g>
		<g>
			<path class="st0" d="M663.97,297.35c-84.3,0-152.51,65.49-152.51,146.43s68.21,146.43,152.51,146.43"/>
			<path class="st0" d="M816.48,443.78"/>
			<path class="st0" d="M802.61,443.78"/>
			<path class="st0" d="M663.97,576.9c-76.63,0-138.64-59.54-138.64-133.12s62.01-133.12,138.64-133.12"/>
			<path class="st0" d="M663.97,323.97c-68.97,0-124.78,53.59-124.78,119.81S595,563.59,663.97,563.59"/>
			<path class="st0" d="M788.75,443.78"/>
			<path class="st0" d="M663.97,550.28c-61.31,0-110.91-47.63-110.91-106.5s49.61-106.5,110.91-106.5"/>
			<path class="st0" d="M663.97,350.6c-53.64,0-97.05,41.68-97.05,93.18s43.41,93.18,97.05,93.18"/>
			<path class="st0" d="M663.97,523.65c-45.98,0-83.18-35.72-83.18-79.87s37.21-79.87,83.18-79.87"/>
			<path class="st0" d="M663.97,377.22c-38.32,0-69.32,29.77-69.32,66.56s31,66.56,69.32,66.56"/>
			<path class="st0" d="M663.97,497.03c-30.65,0-55.46-23.82-55.46-53.25c0-29.43,24.8-53.25,55.46-53.25"/>
			<path class="st0" d="M663.97,403.85c-22.99,0-41.59,17.86-41.59,39.94s18.6,39.94,41.59,39.94"/>
			<path class="st0" d="M663.97,470.41c-15.33,0-27.73-11.91-27.73-26.62s12.4-26.62,27.73-26.62"/>
			<path class="st0" d="M663.97,430.47c-7.66,0-13.86,5.95-13.86,13.31c0,7.36,6.2,13.31,13.86,13.31"/>
		</g>
	</g>
	<path class="st0" d="M663.97,604.53c84.3,0,152.51-65.49,152.51-146.43"/>
	<path class="st0" d="M816.48,457.09c0-80.94-68.21-146.43-152.51-146.43"/>
	<path class="st0" d="M802.61,458.1c0,73.58-62.01,133.12-138.64,133.12"/>
	<path class="st0" d="M663.97,323.97c76.63,0,138.64,59.54,138.64,133.12"/>
	<path class="st0" d="M663.97,577.9c68.97,0,124.78-53.59,124.78-119.81"/>
	<path class="st0" d="M788.75,457.09c0-66.22-55.81-119.81-124.78-119.81"/>
	<path class="st0" d="M663.97,350.6c61.31,0,110.91,47.63,110.91,106.5s-49.61,106.5-110.91,106.5"/>
	<path class="st0" d="M663.97,550.28c53.64,0,97.05-41.68,97.05-93.18s-43.41-93.18-97.05-93.18"/>
	<path class="st0" d="M663.97,377.22c45.98,0,83.18,35.72,83.18,79.87s-37.21,79.87-83.18,79.87"/>
	<g id="Capa_5">
		<g>
			<g>
				<path class="st1" d="M941.97,504c0-58.03-46.96-104.99-104.99-104.99S731.99,445.97,731.99,504"/>
			</g>
			<g>
				<path class="st1" d="M510.75,383.56"/>
			</g>
		</g>
	</g>
	<path class="st0" d="M663.97,523.65c38.32,0,69.32-29.77,69.32-66.56s-31-66.56-69.32-66.56"/>
	<path class="st0" d="M663.97,403.85c30.65,0,55.46,23.82,55.46,53.25s-24.8,53.25-55.46,53.25"/>
	<path class="st0" d="M663.97,497.03c22.99,0,41.59-17.86,41.59-39.94s-18.6-39.94-41.59-39.94"/>
	<path class="st0" d="M663.97,430.47c15.33,0,27.73,11.91,27.73,26.62s-12.4,26.62-27.73,26.62"/>
	<path class="st0" d="M662.16,470.41c7.66,0,13.86-5.95,13.86-13.31s-6.2-13.31-13.86-13.31"/>
</g>
<g id="Capa_6">
</g>
<g id="Capa_4">
	<circle class="st2" cx="669.91" cy="284.04" r="56.9"/>
</g>
<g id="Capa_1">
	<g>
		<g>
			<path class="st3" d="M691.7,122.31c0,96.73,78.27,175,175,175s175-78.27,175-175"/>
			<path class="st4" d="M1025.79,122.31c0,87.94-71.16,159.09-159.09,159.09s-159.09-71.16-159.09-159.09"/>
			<path class="st3" d="M723.52,122.31c0,79.14,64.04,143.18,143.18,143.18s143.18-64.04,143.18-143.18"/>
			<path class="st4" d="M993.97,122.31c0,70.35-56.92,127.27-127.27,127.27s-127.27-56.92-127.27-127.27"/>
			<path class="st3" d="M755.34,122.31c0,61.55,49.81,111.36,111.36,111.36s111.36-49.81,111.36-111.36"/>
			<path class="st4" d="M962.15,122.31c0,52.76-42.69,95.45-95.45,95.45c-52.76,0-95.45-42.69-95.45-95.45"/>
			<path class="st3" d="M787.15,122.31c0,43.97,35.58,79.55,79.55,79.55c43.97,0,79.55-35.58,79.55-79.55"/>
			<path class="st4" d="M930.34,122.31c0,35.17-28.46,63.64-63.64,63.64s-63.64-28.46-63.64-63.64"/>
			<path class="st3" d="M818.97,122.31c0,26.38,21.35,47.73,47.73,47.73s47.73-21.35,47.73-47.73"/>
			<path class="st4" d="M898.52,122.31c0,17.59-14.23,31.82-31.82,31.82c-17.59,0-31.82-14.23-31.82-31.82"/>
			<path class="st3" d="M850.79,122.31c0,8.79,7.12,15.91,15.91,15.91s15.91-7.12,15.91-15.91"/>
		</g>
		<g>
			<line class="st4" x1="866.7" y1="122.31" x2="691.7" y2="122.31"/>
			<line class="st4" x1="866.7" y1="122.31" x2="1041.7" y2="122.31"/>
		</g>
	</g>
	<path class="st5" d="M1041.7,123.72c0-96.73-78.27-175-175-175s-175,78.27-175,175"/>
	<path class="st5" d="M707.61,123.72c0-87.94,71.16-159.09,159.09-159.09s159.09,71.16,159.09,159.09"/>
	<path class="st5" d="M1009.88,123.72c0-79.14-64.04-143.18-143.18-143.18S723.52,44.57,723.52,123.72"/>
	<path class="st5" d="M739.43,123.72c0-70.35,56.92-127.27,127.27-127.27s127.27,56.92,127.27,127.27"/>
	<path class="st5" d="M978.06,123.72c0-61.55-49.81-111.36-111.36-111.36S755.34,62.16,755.34,123.72"/>
	<path class="st5" d="M771.24,123.72c0-52.76,42.69-95.45,95.45-95.45c52.76,0,95.45,42.69,95.45,95.45"/>
	<path class="st5" d="M946.24,123.72c0-43.97-35.58-79.55-79.55-79.55c-43.97,0-79.55,35.58-79.55,79.55"/>
	<path class="st5" d="M803.06,123.72c0-35.17,28.46-63.64,63.64-63.64s63.64,28.46,63.64,63.64"/>
	<path class="st5" d="M914.43,123.72c0-26.38-21.35-47.73-47.73-47.73s-47.73,21.35-47.73,47.73"/>
	<path class="st5" d="M834.88,123.72c0-17.59,14.23-31.82,31.82-31.82c17.59,0,31.82,14.23,31.82,31.82"/>
	<path class="st5" d="M882.61,123.72c0-8.79-7.12-15.91-15.91-15.91s-15.91,7.12-15.91,15.91"/>
</g>
</svg>
