<?xml version="1.0" encoding="utf-8"?>
<!-- Generator: Adobe Illustrator 25.3.0, SVG Export Plug-In . SVG Version: 6.00 Build 0)  -->
<svg version="1.1" xmlns="http://www.w3.org/2000/svg" xmlns:xlink="http://www.w3.org/1999/xlink" x="0px" y="0px"
	 viewBox="0 0 1020 650" style="enable-background:new 0 0 1020 650;" xml:space="preserve">
<style type="text/css">
	.st0{fill:none;stroke:#175694;stroke-width:2;stroke-linecap:round;stroke-linejoin:round;stroke-miterlimit:10;}
	
		.st1{fill:none;stroke:#82368C;stroke-width:3;stroke-linecap:round;stroke-linejoin:round;stroke-miterlimit:10;stroke-dasharray:0,6,0,0,0,0;}
	
		.st2{fill:none;stroke:#175694;stroke-width:2.5;stroke-linecap:round;stroke-linejoin:round;stroke-miterlimit:10;stroke-dasharray:0,5,0,0,0,0;}
	
		.st3{fill:none;stroke:#82368C;stroke-width:3.2;stroke-linecap:round;stroke-linejoin:round;stroke-miterlimit:10;stroke-dasharray:0,6,0,0,0,0;}
	.st4{fill:#131313;}
	.st5{fill:#175694;}
	.st6{fill:none;stroke:#FFFFFF;stroke-width:0.75;stroke-miterlimit:10;}
	.st7{fill:#175694;stroke:#82368C;stroke-width:0.75;stroke-miterlimit:10;}
</style>
<g id="Capa_1">
	<g>
		<g>
			<path class="st0" d="M296.02,45.37c-148.84,0-269.28,120.44-269.28,269.28s120.44,269.28,269.28,269.28"/>
			<path class="st1" d="M296.02,559.45c-135.31,0-244.8-109.49-244.8-244.8s109.49-244.8,244.8-244.8"/>
			<path class="st2" d="M296.02,94.33c-121.78,0-220.32,98.54-220.32,220.32s98.54,220.32,220.32,220.32"/>
			<path class="st1" d="M296.02,510.49c-108.25,0-195.84-87.59-195.84-195.84s87.59-195.84,195.84-195.84"/>
			<path class="st2" d="M296.02,143.29c-94.72,0-171.36,76.64-171.36,171.36s76.64,171.36,171.36,171.36"/>
			<path class="st1" d="M296.02,461.53c-81.18,0-146.88-65.69-146.88-146.88s65.69-146.88,146.88-146.88"/>
			<path class="st2" d="M296.02,192.25c-67.65,0-122.4,54.74-122.4,122.4s54.74,122.4,122.4,122.4"/>
			<path class="st1" d="M296.02,412.57c-54.12,0-97.92-43.8-97.92-97.92s43.8-97.92,97.92-97.92"/>
			<path class="st2" d="M296.02,241.21c-40.59,0-73.44,32.85-73.44,73.44s32.85,73.44,73.44,73.44"/>
			<path class="st1" d="M296.02,363.61c-27.06,0-48.96-21.9-48.96-48.96s21.9-48.96,48.96-48.96"/>
			<path class="st2" d="M296.02,290.17c-13.53,0-24.48,10.95-24.48,24.48s10.95,24.48,24.48,24.48"/>
		</g>
	</g>
</g>
<g id="Capa_4">
	<path class="st1" d="M296.02,608.41c148.84,0,269.28-120.44,269.28-269.28S444.86,69.85,296.02,69.85"/>
	<path class="st2" d="M296.02,94.33c135.31,0,244.8,109.49,244.8,244.8s-109.49,244.8-244.8,244.8"/>
	<path class="st3" d="M296.02,559.45c121.78,0,220.32-98.54,220.32-220.32S417.8,118.81,296.02,118.81"/>
	<path class="st2" d="M296.02,143.29c108.25,0,195.84,87.59,195.84,195.84s-87.59,195.84-195.84,195.84"/>
	<path class="st1" d="M296.02,510.49c94.72,0,171.36-76.64,171.36-171.36s-76.64-171.36-171.36-171.36"/>
	<path class="st2" d="M296.02,192.25c81.18,0,146.88,65.69,146.88,146.88s-65.69,146.88-146.88,146.88"/>
	<path class="st1" d="M296.02,461.53c67.65,0,122.4-54.74,122.4-122.4s-54.74-122.4-122.4-122.4"/>
	<path class="st2" d="M296.02,241.21c54.12,0,97.92,43.8,97.92,97.92s-43.8,97.92-97.92,97.92"/>
	<path class="st3" d="M296.02,412.57c40.59,0,73.44-32.85,73.44-73.44s-32.85-73.44-73.44-73.44"/>
	<path class="st2" d="M296.02,290.17c27.06,0,48.96,21.9,48.96,48.96s-21.9,48.96-48.96,48.96"/>
	<path class="st1" d="M296.02,363.61c13.53,0,24.48-10.95,24.48-24.48s-10.95-24.48-24.48-24.48"/>
</g>
<g id="Capa_2">
	<path class="st4" d="M-9.48,653.19V0.59h529.01c-38.97,7.03-75.44,21.87-107.97,42.97c-89.23,57.85-148.78,162.68-148.78,282.58
		c0,119.86,59.57,224.71,148.78,282.56c35.11,22.77,74.81,38.24,117.29,44.49H-9.48z"/>
	<path class="st4" d="M-9.48,653.19V0.59h421.03v42.97c-89.23,57.85-148.78,162.68-148.78,282.58
		c0,119.86,59.57,224.71,148.78,282.56v44.49H-9.48z"/>
</g>
<g id="Capa_5">
	<g>
		<path class="st5" d="M107.55,161.85c-107.7-0.8-195.49,85.7-196.29,193.39s85.7,195.49,193.39,196.29"/>
	</g>
	<g>
		<path class="st5" d="M101.18,551.53c107.7,0,194.85-87.15,194.85-194.85s-87.15-194.85-194.85-194.85"/>
	</g>
	<g id="Capa_6">
		<g>
			<g>
				<path class="st6" d="M172.97,296.9c33.16,39.33,28.16,97.99-11.17,131.14S63.8,456.2,30.65,416.87"/>
				<path class="st6" d="M39.54,409.37c29.01,34.42,80.34,38.79,114.75,9.78s38.79-80.34,9.78-114.75"/>
				<path class="st6" d="M155.18,311.89c24.87,29.5,21.12,73.49-8.38,98.36s-73.49,21.12-98.36-8.38"/>
				<path class="st6" d="M57.33,394.37c20.72,24.58,57.38,27.71,81.97,6.98s27.71-57.38,6.98-81.97"/>
				<path class="st6" d="M137.39,326.89c16.58,19.67,14.08,48.99-5.59,65.57c-19.67,16.58-48.99,14.08-65.57-5.59"/>
				<path class="st6" d="M75.12,379.38c12.43,14.75,34.43,16.62,49.18,4.19s16.62-34.43,4.19-49.18"/>
				<path class="st6" d="M119.6,341.88c8.29,9.83,7.04,24.5-2.79,32.79s-24.5,7.04-32.79-2.79"/>
				<path class="st6" d="M92.91,364.38c4.14,4.92,11.48,5.54,16.39,1.4c4.92-4.14,5.54-11.48,1.4-16.39"/>
			</g>
			<g>
				<path class="st6" d="M172.97,296.9"/>
				<path class="st6" d="M101.81,356.88"/>
				<path class="st6" d="M30.65,416.87"/>
				<path class="st6" d="M101.81,356.88"/>
			</g>
		</g>
		<path class="st4" d="M31.17,417.49C-1.98,378.16,3.01,319.5,42.35,286.34s97.99-28.16,131.14,11.17L31.17,417.49z"/>
		<path class="st4" d="M129.02,335.01c-12.43-14.75-34.43-16.62-49.18-4.19S63.21,365.25,75.65,380"/>
		<path class="st4" d="M84.54,372.5c-8.29-9.83-7.04-24.5,2.79-32.79s24.5-7.04,32.79,2.79"/>
		<path class="st4" d="M111.23,350c-4.14-4.92-11.48-5.54-16.39-1.4c-4.92,4.14-5.54,11.48-1.4,16.39"/>
		<path class="st7" d="M-48,366.07"/>
	</g>
</g>
</svg>
